<svg xmlns="http://www.w3.org/2000/svg" viewBox="0 0 1000 1000" width="1000" height="1000" role="img" aria-label="mctop">
<rect width="1000" height="1000" rx="200" fill="#191724"/>
<g transform="translate(140.0,685.0) scale(0.3614,-0.3614)">
<path transform="translate(0.0,0)" d="M239 -69H470V-143H156V823H470V750H239Z" fill="#c4a7e7"/>
<path transform="translate(696.0,0)" d="M55 0V520H161V469Q166 481 175.0 492.5Q184 504 195.5 512.5Q207 521 220.5 524.5Q234 528 249 528Q266 528 282.5 522.5Q299 517 311.5 505.0Q324 493 332.0 478.0Q340 463 345 446Q349 463 357.0 478.0Q365 493 377.5 505.0Q390 517 406.5 522.5Q423 528 441 528Q458 528 474.5 522.0Q491 516 503.5 504.5Q516 493 524.0 477.5Q532 462 536.5 445.5Q541 429 543.0 411.5Q545 394 545 377V0H439V377Q439 388 437.5 398.5Q436 409 430.5 418.0Q425 427 416.0 433.0Q407 439 396 439Q385 439 376.0 433.0Q367 427 361.5 418.0Q356 409 354.5 398.5Q353 388 353 377V0H247V377Q247 388 245.5 398.5Q244 409 238.5 418.0Q233 427 224.0 433.0Q215 439 204 439Q193 439 184.0 433.0Q175 427 169.5 418.0Q164 409 162.5 398.5Q161 388 161 377V0Z" fill="#e0def4"/>
<path transform="translate(1392.0,0)" d="M130 -69H361V750H130V823H444V-143H130Z" fill="#c4a7e7"/>
</g></svg>
