<svg xmlns="http://www.w3.org/2000/svg" viewBox="0 0 4860 1000" width="4860" height="1000" role="img" aria-label="mctop">
<g transform="translate(0,800) scale(1,-1)">
<path transform="translate(0.0,0)" d="M239 -69H470V-143H156V823H470V750H239Z" fill="#907aa9"/>
<path transform="translate(930.0,0)" d="M55 0V520H161V469Q166 481 175.0 492.5Q184 504 195.5 512.5Q207 521 220.5 524.5Q234 528 249 528Q266 528 282.5 522.5Q299 517 311.5 505.0Q324 493 332.0 478.0Q340 463 345 446Q349 463 357.0 478.0Q365 493 377.5 505.0Q390 517 406.5 522.5Q423 528 441 528Q458 528 474.5 522.0Q491 516 503.5 504.5Q516 493 524.0 477.5Q532 462 536.5 445.5Q541 429 543.0 411.5Q545 394 545 377V0H439V377Q439 388 437.5 398.5Q436 409 430.5 418.0Q425 427 416.0 433.0Q407 439 396 439Q385 439 376.0 433.0Q367 427 361.5 418.0Q356 409 354.5 398.5Q353 388 353 377V0H247V377Q247 388 245.5 398.5Q244 409 238.5 418.0Q233 427 224.0 433.0Q215 439 204 439Q193 439 184.0 433.0Q175 427 169.5 418.0Q164 409 162.5 398.5Q161 388 161 377V0Z" fill="#575279"/>
<path transform="translate(1530.0,0)" d="M297 -8Q267 -8 237.5 -3.0Q208 2 181.5 14.5Q155 27 133.0 48.0Q111 69 97.5 95.5Q84 122 78.5 151.0Q73 180 73 210V310Q73 340 78.5 369.0Q84 398 97.5 424.5Q111 451 133.0 472.0Q155 493 181.5 505.5Q208 518 237.5 523.0Q267 528 297 528Q325 528 352.5 524.0Q380 520 405.5 509.5Q431 499 453.5 481.5Q476 464 491.0 441.0Q506 418 513.5 391.0Q521 364 521 336V331H402V333Q402 353 394.5 372.0Q387 391 371.5 404.0Q356 417 336.5 422.0Q317 427 297 427Q275 427 253.5 419.0Q232 411 217.5 394.0Q203 377 197.5 354.5Q192 332 192 310V210Q192 188 197.5 165.5Q203 143 217.5 126.0Q232 109 253.5 101.0Q275 93 297 93Q317 93 336.5 98.0Q356 103 371.5 116.0Q387 129 394.5 148.0Q402 167 402 187V189H521V184Q521 156 513.5 129.0Q506 102 491.0 79.0Q476 56 453.5 38.5Q431 21 405.5 10.5Q380 0 352.5 -4.0Q325 -8 297 -8Z" fill="#575279"/>
<path transform="translate(2130.0,0)" d="M369 0Q345 0 321.0 4.0Q297 8 276.0 18.5Q255 29 237.5 46.0Q220 63 209.5 84.5Q199 106 195.0 130.0Q191 154 191 178V419H36V520H191V696H310V520H539V419H310V178Q310 164 312.5 150.0Q315 136 322.5 124.5Q330 113 342.5 107.0Q355 101 369 101H539V0Z" fill="#575279"/>
<path transform="translate(2730.0,0)" d="M300 -8Q270 -8 240.5 -3.0Q211 2 184.0 14.5Q157 27 134.5 47.5Q112 68 98.0 94.5Q84 121 78.5 150.5Q73 180 73 210V310Q73 340 78.5 369.5Q84 399 98.0 425.5Q112 452 134.5 472.5Q157 493 184.0 505.5Q211 518 240.5 523.0Q270 528 300 528Q330 528 359.5 523.0Q389 518 416.0 505.5Q443 493 465.5 472.5Q488 452 502.0 425.5Q516 399 521.5 369.5Q527 340 527 310V210Q527 180 521.5 150.5Q516 121 502.0 94.5Q488 68 465.5 47.5Q443 27 416.0 14.5Q389 2 359.5 -3.0Q330 -8 300 -8ZM300 93Q323 93 345.0 100.5Q367 108 381.5 125.5Q396 143 402.0 165.0Q408 187 408 210V310Q408 333 402.0 355.0Q396 377 381.5 394.5Q367 412 345.0 419.5Q323 427 300 427Q277 427 255.0 419.5Q233 412 218.5 394.5Q204 377 198.0 355.0Q192 333 192 310V210Q192 187 198.0 165.0Q204 143 218.5 125.5Q233 108 255.0 100.5Q277 93 300 93Z" fill="#575279"/>
<path transform="translate(3330.0,0)" d="M81 -215V520H200V423Q209 446 224.0 466.5Q239 487 259.5 501.5Q280 516 304.5 522.0Q329 528 354 528Q381 528 406.5 521.0Q432 514 453.0 498.5Q474 483 489.0 460.5Q504 438 512.5 413.5Q521 389 524.0 362.5Q527 336 527 310V210Q527 184 524.0 157.5Q521 131 512.5 106.5Q504 82 489.0 59.5Q474 37 453.0 21.5Q432 6 406.5 -1.0Q381 -8 354 -8Q329 -8 304.5 -2.0Q280 4 259.5 18.5Q239 33 224.0 53.5Q209 74 200 97V-215ZM200 310V210Q200 188 205.5 166.0Q211 144 225.0 126.5Q239 109 260.5 101.0Q282 93 304 93Q326 93 347.5 101.0Q369 109 383.0 126.5Q397 144 402.5 166.0Q408 188 408 210V310Q408 332 402.5 354.0Q397 376 383.0 393.5Q369 411 347.5 419.0Q326 427 304 427Q282 427 260.5 419.0Q239 411 225.0 393.5Q211 376 205.5 354.0Q200 332 200 310Z" fill="#575279"/>
<path transform="translate(4260.0,0)" d="M130 -69H361V750H130V823H444V-143H130Z" fill="#907aa9"/>
</g></svg>
